<svg width="58" height="65" viewBox="0 0 58 65" fill="none" xmlns="http://www.w3.org/2000/svg">
<mask id="path-1-outside-1_1457_3830" maskUnits="userSpaceOnUse" x="0.24707" y="0.0531006" width="58" height="65" fill="black">
<rect fill="white" x="0.24707" y="0.0531006" width="58" height="65"/>
<path d="M52.9277 20.1054C53.9594 20.1054 54.9957 19.7111 55.7718 18.927C56.5153 18.175 56.9196 17.1845 56.9103 16.1345C56.8964 15.0844 56.4735 14.1031 55.716 13.3649L51.9239 9.69657C51.1618 8.9629 50.1116 8.57314 49.0938 8.57314C48.0297 8.58232 47.0352 9.00417 46.2916 9.75159C45.5481 10.5036 45.1438 11.494 45.1531 12.5441C45.1577 13.1402 45.3111 13.7042 45.5667 14.2269L43.2942 16.515C40.2411 14.3462 36.7604 12.8376 33.1077 12.1039V8.91705H34.4368C36.6349 8.91705 38.4194 7.15626 38.4194 4.98737C38.4194 2.81848 36.6396 1.0531 34.4415 1.0531H21.1646C18.9665 1.0531 17.1821 2.81389 17.1821 4.98278C17.1821 7.15167 18.9665 8.91246 21.1646 8.91246H22.4937V12.1131C10.1184 14.5892 1.24707 25.1723 1.24707 37.7362C1.24707 44.9399 4.21193 51.4741 8.99382 56.2154C9.00776 56.2291 9.01241 56.2475 9.02635 56.2612C9.04029 56.275 9.05888 56.2796 9.07282 56.2933C13.8779 61.0163 20.5001 63.9418 27.8007 63.9418C35.1014 63.9418 41.7235 61.0163 46.5286 56.2933C46.5426 56.2796 46.5612 56.275 46.5751 56.2612C46.589 56.2475 46.5937 56.2291 46.6076 56.2154C51.3942 51.4741 54.3544 44.9399 54.3544 37.7362C54.3544 32.0687 52.4398 26.5433 48.9823 22.0175L51.2594 19.7248C51.7892 19.9678 52.3561 20.1008 52.9277 20.1008V20.1054ZM48.1877 11.5903C48.434 11.3427 48.7685 11.2006 49.1217 11.196C49.5214 11.2052 49.8095 11.3244 50.0651 11.572L53.8571 15.2403C54.1127 15.4833 54.2521 15.8135 54.2568 16.162C54.2614 16.5105 54.1267 16.8406 53.8804 17.0928C53.3645 17.611 52.5234 17.6201 52.0029 17.1111L48.2109 13.4428C47.9553 13.1998 47.8159 12.8697 47.8112 12.5212C47.8112 12.1727 47.9414 11.8425 48.1923 11.5903H48.1877ZM47.2954 16.2308L49.1914 18.0649L47.2861 19.9816C47.1235 19.8119 46.9422 19.6606 46.7796 19.491C46.7656 19.4772 46.7517 19.4589 46.7331 19.4405C46.682 19.3626 46.6448 19.2755 46.5751 19.2067C46.5286 19.1608 46.4682 19.1425 46.4171 19.1012C46.2452 18.9361 46.0639 18.7894 45.8873 18.6289C45.7154 18.473 45.562 18.2988 45.3901 18.1474L47.2954 16.2308ZM47.7136 39.0431H51.6312C51.3245 44.5593 49.0938 49.562 45.5853 53.432L42.8202 50.7037C42.2997 50.1902 41.4633 50.1902 40.9428 50.7037C40.4223 51.2127 40.4223 52.0427 40.9428 52.5562L43.7078 55.2845C39.7857 58.7465 34.7156 60.9475 29.1252 61.2501V57.3801C29.1252 56.6556 28.5303 56.0686 27.7961 56.0686C27.0618 56.0686 26.467 56.6556 26.467 57.3801V61.2501C20.8765 60.9429 15.8065 58.7465 11.8843 55.2845L14.6494 52.5562C15.1698 52.0427 15.1698 51.2127 14.6494 50.7037C14.1289 50.1902 13.2924 50.1902 12.7719 50.7037L10.0069 53.432C6.49832 49.562 4.2677 44.5593 3.96099 39.0431H7.88781C8.62205 39.0431 9.21689 38.4562 9.21689 37.7317C9.21689 37.0072 8.62205 36.4202 7.88781 36.4202H3.96099C4.2677 30.9086 6.46114 25.883 9.98366 22.0038L12.7766 24.7642C13.0368 25.021 13.3761 25.1493 13.7153 25.1493C14.0545 25.1493 14.3938 25.021 14.654 24.7642C15.1745 24.2552 15.1745 23.4252 14.654 22.9117L11.8657 20.1604C15.1791 17.2487 19.3337 15.2128 24.0226 14.4791C24.8963 14.3416 25.6956 14.2636 26.4716 14.2132V18.0833C26.4716 18.8077 27.0665 19.3947 27.8007 19.3947C28.535 19.3947 29.1298 18.8077 29.1298 18.0833V14.2132C29.9012 14.2636 30.7005 14.3416 31.5788 14.4791C35.58 15.1073 39.3999 16.7672 42.6158 19.2755C42.9875 19.5643 43.3314 19.8945 43.6892 20.2063L40.9474 22.9117C40.427 23.4252 40.427 24.2552 40.9474 24.7642C41.2077 25.021 41.5469 25.1493 41.8862 25.1493C42.2254 25.1493 42.5646 25.021 42.8249 24.7642L45.5713 22.0542C45.7851 22.2881 46.0128 22.5036 46.2173 22.7466C49.4703 26.6213 51.3616 31.4359 51.6451 36.4248H47.7183C46.984 36.4248 46.3892 37.0118 46.3892 37.7362C46.3892 38.4607 46.984 39.0477 47.7183 39.0477L47.7136 39.0431ZM19.8356 4.98278C19.8356 4.25829 20.4304 3.67136 21.1646 3.67136H34.4415C35.1757 3.67136 35.7705 4.25829 35.7705 4.98278C35.7705 5.70727 35.1757 6.29421 34.4415 6.29421H21.1646C20.4304 6.29421 19.8356 5.70727 19.8356 4.98278ZM30.4589 8.91246V11.682C30.3427 11.6683 30.2312 11.6637 30.115 11.6545C29.9198 11.6362 29.7153 11.6178 29.5248 11.6041C29.009 11.5674 28.5024 11.5399 28.0098 11.5353C27.8704 11.5353 27.731 11.5353 27.5916 11.5353C27.1037 11.5399 26.5971 11.5628 26.0766 11.6041C25.8815 11.6178 25.6816 11.6362 25.4865 11.6545C25.3703 11.6637 25.2588 11.6683 25.1426 11.682V8.91246H30.4542H30.4589Z"/>
</mask>
<path d="M52.9277 20.1054C53.9594 20.1054 54.9957 19.7111 55.7718 18.927C56.5153 18.175 56.9196 17.1845 56.9103 16.1345C56.8964 15.0844 56.4735 14.1031 55.716 13.3649L51.9239 9.69657C51.1618 8.9629 50.1116 8.57314 49.0938 8.57314C48.0297 8.58232 47.0352 9.00417 46.2916 9.75159C45.5481 10.5036 45.1438 11.494 45.1531 12.5441C45.1577 13.1402 45.3111 13.7042 45.5667 14.2269L43.2942 16.515C40.2411 14.3462 36.7604 12.8376 33.1077 12.1039V8.91705H34.4368C36.6349 8.91705 38.4194 7.15626 38.4194 4.98737C38.4194 2.81848 36.6396 1.0531 34.4415 1.0531H21.1646C18.9665 1.0531 17.1821 2.81389 17.1821 4.98278C17.1821 7.15167 18.9665 8.91246 21.1646 8.91246H22.4937V12.1131C10.1184 14.5892 1.24707 25.1723 1.24707 37.7362C1.24707 44.9399 4.21193 51.4741 8.99382 56.2154C9.00776 56.2291 9.01241 56.2475 9.02635 56.2612C9.04029 56.275 9.05888 56.2796 9.07282 56.2933C13.8779 61.0163 20.5001 63.9418 27.8007 63.9418C35.1014 63.9418 41.7235 61.0163 46.5286 56.2933C46.5426 56.2796 46.5612 56.275 46.5751 56.2612C46.589 56.2475 46.5937 56.2291 46.6076 56.2154C51.3942 51.4741 54.3544 44.9399 54.3544 37.7362C54.3544 32.0687 52.4398 26.5433 48.9823 22.0175L51.2594 19.7248C51.7892 19.9678 52.3561 20.1008 52.9277 20.1008V20.1054ZM48.1877 11.5903C48.434 11.3427 48.7685 11.2006 49.1217 11.196C49.5214 11.2052 49.8095 11.3244 50.0651 11.572L53.8571 15.2403C54.1127 15.4833 54.2521 15.8135 54.2568 16.162C54.2614 16.5105 54.1267 16.8406 53.8804 17.0928C53.3645 17.611 52.5234 17.6201 52.0029 17.1111L48.2109 13.4428C47.9553 13.1998 47.8159 12.8697 47.8112 12.5212C47.8112 12.1727 47.9414 11.8425 48.1923 11.5903H48.1877ZM47.2954 16.2308L49.1914 18.0649L47.2861 19.9816C47.1235 19.8119 46.9422 19.6606 46.7796 19.491C46.7656 19.4772 46.7517 19.4589 46.7331 19.4405C46.682 19.3626 46.6448 19.2755 46.5751 19.2067C46.5286 19.1608 46.4682 19.1425 46.4171 19.1012C46.2452 18.9361 46.0639 18.7894 45.8873 18.6289C45.7154 18.473 45.562 18.2988 45.3901 18.1474L47.2954 16.2308ZM47.7136 39.0431H51.6312C51.3245 44.5593 49.0938 49.562 45.5853 53.432L42.8202 50.7037C42.2997 50.1902 41.4633 50.1902 40.9428 50.7037C40.4223 51.2127 40.4223 52.0427 40.9428 52.5562L43.7078 55.2845C39.7857 58.7465 34.7156 60.9475 29.1252 61.2501V57.3801C29.1252 56.6556 28.5303 56.0686 27.7961 56.0686C27.0618 56.0686 26.467 56.6556 26.467 57.3801V61.2501C20.8765 60.9429 15.8065 58.7465 11.8843 55.2845L14.6494 52.5562C15.1698 52.0427 15.1698 51.2127 14.6494 50.7037C14.1289 50.1902 13.2924 50.1902 12.7719 50.7037L10.0069 53.432C6.49832 49.562 4.2677 44.5593 3.96099 39.0431H7.88781C8.62205 39.0431 9.21689 38.4562 9.21689 37.7317C9.21689 37.0072 8.62205 36.4202 7.88781 36.4202H3.96099C4.2677 30.9086 6.46114 25.883 9.98366 22.0038L12.7766 24.7642C13.0368 25.021 13.3761 25.1493 13.7153 25.1493C14.0545 25.1493 14.3938 25.021 14.654 24.7642C15.1745 24.2552 15.1745 23.4252 14.654 22.9117L11.8657 20.1604C15.1791 17.2487 19.3337 15.2128 24.0226 14.4791C24.8963 14.3416 25.6956 14.2636 26.4716 14.2132V18.0833C26.4716 18.8077 27.0665 19.3947 27.8007 19.3947C28.535 19.3947 29.1298 18.8077 29.1298 18.0833V14.2132C29.9012 14.2636 30.7005 14.3416 31.5788 14.4791C35.58 15.1073 39.3999 16.7672 42.6158 19.2755C42.9875 19.5643 43.3314 19.8945 43.6892 20.2063L40.9474 22.9117C40.427 23.4252 40.427 24.2552 40.9474 24.7642C41.2077 25.021 41.5469 25.1493 41.8862 25.1493C42.2254 25.1493 42.5646 25.021 42.8249 24.7642L45.5713 22.0542C45.7851 22.2881 46.0128 22.5036 46.2173 22.7466C49.4703 26.6213 51.3616 31.4359 51.6451 36.4248H47.7183C46.984 36.4248 46.3892 37.0118 46.3892 37.7362C46.3892 38.4607 46.984 39.0477 47.7183 39.0477L47.7136 39.0431ZM19.8356 4.98278C19.8356 4.25829 20.4304 3.67136 21.1646 3.67136H34.4415C35.1757 3.67136 35.7705 4.25829 35.7705 4.98278C35.7705 5.70727 35.1757 6.29421 34.4415 6.29421H21.1646C20.4304 6.29421 19.8356 5.70727 19.8356 4.98278ZM30.4589 8.91246V11.682C30.3427 11.6683 30.2312 11.6637 30.115 11.6545C29.9198 11.6362 29.7153 11.6178 29.5248 11.6041C29.009 11.5674 28.5024 11.5399 28.0098 11.5353C27.8704 11.5353 27.731 11.5353 27.5916 11.5353C27.1037 11.5399 26.5971 11.5628 26.0766 11.6041C25.8815 11.6178 25.6816 11.6362 25.4865 11.6545C25.3703 11.6637 25.2588 11.6683 25.1426 11.682V8.91246H30.4542H30.4589Z" fill="#203053"/>
<path d="M52.9277 20.1054C53.9594 20.1054 54.9957 19.7111 55.7718 18.927C56.5153 18.175 56.9196 17.1845 56.9103 16.1345C56.8964 15.0844 56.4735 14.1031 55.716 13.3649L51.9239 9.69657C51.1618 8.9629 50.1116 8.57314 49.0938 8.57314C48.0297 8.58232 47.0352 9.00417 46.2916 9.75159C45.5481 10.5036 45.1438 11.494 45.1531 12.5441C45.1577 13.1402 45.3111 13.7042 45.5667 14.2269L43.2942 16.515C40.2411 14.3462 36.7604 12.8376 33.1077 12.1039V8.91705H34.4368C36.6349 8.91705 38.4194 7.15626 38.4194 4.98737C38.4194 2.81848 36.6396 1.0531 34.4415 1.0531H21.1646C18.9665 1.0531 17.1821 2.81389 17.1821 4.98278C17.1821 7.15167 18.9665 8.91246 21.1646 8.91246H22.4937V12.1131C10.1184 14.5892 1.24707 25.1723 1.24707 37.7362C1.24707 44.9399 4.21193 51.4741 8.99382 56.2154C9.00776 56.2291 9.01241 56.2475 9.02635 56.2612C9.04029 56.275 9.05888 56.2796 9.07282 56.2933C13.8779 61.0163 20.5001 63.9418 27.8007 63.9418C35.1014 63.9418 41.7235 61.0163 46.5286 56.2933C46.5426 56.2796 46.5612 56.275 46.5751 56.2612C46.589 56.2475 46.5937 56.2291 46.6076 56.2154C51.3942 51.4741 54.3544 44.9399 54.3544 37.7362C54.3544 32.0687 52.4398 26.5433 48.9823 22.0175L51.2594 19.7248C51.7892 19.9678 52.3561 20.1008 52.9277 20.1008V20.1054ZM48.1877 11.5903C48.434 11.3427 48.7685 11.2006 49.1217 11.196C49.5214 11.2052 49.8095 11.3244 50.0651 11.572L53.8571 15.2403C54.1127 15.4833 54.2521 15.8135 54.2568 16.162C54.2614 16.5105 54.1267 16.8406 53.8804 17.0928C53.3645 17.611 52.5234 17.6201 52.0029 17.1111L48.2109 13.4428C47.9553 13.1998 47.8159 12.8697 47.8112 12.5212C47.8112 12.1727 47.9414 11.8425 48.1923 11.5903H48.1877ZM47.2954 16.2308L49.1914 18.0649L47.2861 19.9816C47.1235 19.8119 46.9422 19.6606 46.7796 19.491C46.7656 19.4772 46.7517 19.4589 46.7331 19.4405C46.682 19.3626 46.6448 19.2755 46.5751 19.2067C46.5286 19.1608 46.4682 19.1425 46.4171 19.1012C46.2452 18.9361 46.0639 18.7894 45.8873 18.6289C45.7154 18.473 45.562 18.2988 45.3901 18.1474L47.2954 16.2308ZM47.7136 39.0431H51.6312C51.3245 44.5593 49.0938 49.562 45.5853 53.432L42.8202 50.7037C42.2997 50.1902 41.4633 50.1902 40.9428 50.7037C40.4223 51.2127 40.4223 52.0427 40.9428 52.5562L43.7078 55.2845C39.7857 58.7465 34.7156 60.9475 29.1252 61.2501V57.3801C29.1252 56.6556 28.5303 56.0686 27.7961 56.0686C27.0618 56.0686 26.467 56.6556 26.467 57.3801V61.2501C20.8765 60.9429 15.8065 58.7465 11.8843 55.2845L14.6494 52.5562C15.1698 52.0427 15.1698 51.2127 14.6494 50.7037C14.1289 50.1902 13.2924 50.1902 12.7719 50.7037L10.0069 53.432C6.49832 49.562 4.2677 44.5593 3.96099 39.0431H7.88781C8.62205 39.0431 9.21689 38.4562 9.21689 37.7317C9.21689 37.0072 8.62205 36.4202 7.88781 36.4202H3.96099C4.2677 30.9086 6.46114 25.883 9.98366 22.0038L12.7766 24.7642C13.0368 25.021 13.3761 25.1493 13.7153 25.1493C14.0545 25.1493 14.3938 25.021 14.654 24.7642C15.1745 24.2552 15.1745 23.4252 14.654 22.9117L11.8657 20.1604C15.1791 17.2487 19.3337 15.2128 24.0226 14.4791C24.8963 14.3416 25.6956 14.2636 26.4716 14.2132V18.0833C26.4716 18.8077 27.0665 19.3947 27.8007 19.3947C28.535 19.3947 29.1298 18.8077 29.1298 18.0833V14.2132C29.9012 14.2636 30.7005 14.3416 31.5788 14.4791C35.58 15.1073 39.3999 16.7672 42.6158 19.2755C42.9875 19.5643 43.3314 19.8945 43.6892 20.2063L40.9474 22.9117C40.427 23.4252 40.427 24.2552 40.9474 24.7642C41.2077 25.021 41.5469 25.1493 41.8862 25.1493C42.2254 25.1493 42.5646 25.021 42.8249 24.7642L45.5713 22.0542C45.7851 22.2881 46.0128 22.5036 46.2173 22.7466C49.4703 26.6213 51.3616 31.4359 51.6451 36.4248H47.7183C46.984 36.4248 46.3892 37.0118 46.3892 37.7362C46.3892 38.4607 46.984 39.0477 47.7183 39.0477L47.7136 39.0431ZM19.8356 4.98278C19.8356 4.25829 20.4304 3.67136 21.1646 3.67136H34.4415C35.1757 3.67136 35.7705 4.25829 35.7705 4.98278C35.7705 5.70727 35.1757 6.29421 34.4415 6.29421H21.1646C20.4304 6.29421 19.8356 5.70727 19.8356 4.98278ZM30.4589 8.91246V11.682C30.3427 11.6683 30.2312 11.6637 30.115 11.6545C29.9198 11.6362 29.7153 11.6178 29.5248 11.6041C29.009 11.5674 28.5024 11.5399 28.0098 11.5353C27.8704 11.5353 27.731 11.5353 27.5916 11.5353C27.1037 11.5399 26.5971 11.5628 26.0766 11.6041C25.8815 11.6178 25.6816 11.6362 25.4865 11.6545C25.3703 11.6637 25.2588 11.6683 25.1426 11.682V8.91246H30.4542H30.4589Z" stroke="#203053" mask="url(#path-1-outside-1_1457_3830)"/>
<path d="M30.8937 33.1717L30.8937 33.1717C32.4408 34.1943 33.3619 35.9 33.3619 37.7364C33.3619 40.7664 30.8629 43.2275 27.8003 43.2275C24.7377 43.2275 22.2386 40.7664 22.2386 37.7364C22.2386 37.6786 22.243 37.6245 22.2472 37.5785C22.2481 37.5684 22.249 37.5588 22.2499 37.5496C22.2503 37.5443 22.2508 37.5391 22.2513 37.534L15.8693 28.1245C15.8692 28.1243 15.8691 28.1242 15.869 28.124C15.442 27.4998 15.5317 26.663 16.0738 26.1391L30.8937 33.1717ZM30.8937 33.1717C29.8266 32.4666 28.5409 32.1816 27.2905 32.2927M30.8937 33.1717L30.7558 33.3803C29.7149 32.6925 28.4509 32.4219 27.224 32.5503M27.224 32.5503L27.3655 32.3442L27.2905 32.2927M27.224 32.5503L27.198 32.3017C27.2288 32.2985 27.2597 32.2955 27.2905 32.2927M27.224 32.5503L27.2905 32.2927M27.2905 32.2927L18.0807 25.9706C18.0806 25.9706 18.0806 25.9706 18.0806 25.9705C17.4626 25.5459 16.6197 25.6112 16.0738 26.139L27.2905 32.2927ZM23.9322 33.7931C23.8615 33.8577 23.7889 33.9269 23.7202 34.0012C23.7135 34.0082 23.708 34.0144 23.7042 34.0189C23.6998 34.0241 23.6957 34.0291 23.6936 34.0317L23.6932 34.0322C23.6929 34.0325 23.6927 34.0328 23.6924 34.0331C23.6892 34.0363 23.6861 34.0396 23.6829 34.0429L23.1456 33.2526L23.9322 33.7931ZM30.2084 37.741C30.2084 39.0112 29.1876 40.0551 27.9054 40.1072L27.9028 40.1047H27.8003C26.4713 40.1047 25.3968 39.0396 25.3968 37.7364C25.3968 37.5935 25.4203 37.449 25.4557 37.2915L25.4557 37.2915L25.4566 37.2875C25.49 37.1267 25.5403 36.9733 25.6038 36.8272L25.6048 36.8249C25.6182 36.7931 25.6297 36.7593 25.6376 36.736C25.6391 36.7317 25.6404 36.7278 25.6416 36.7242C25.651 36.6971 25.6568 36.6822 25.6625 36.671C25.7596 36.4795 25.8796 36.3005 26.0251 36.148C26.026 36.1473 26.0274 36.146 26.0296 36.1442C26.0342 36.1404 26.0395 36.1363 26.0481 36.1296L26.0507 36.1276C26.0654 36.1163 26.0921 36.0956 26.117 36.071C26.2447 35.945 26.3827 35.8341 26.5306 35.7449L26.5306 35.7449L26.5327 35.7436C26.5995 35.7025 26.663 35.676 26.7455 35.6417C26.7757 35.6291 26.8085 35.6155 26.8449 35.5997L26.8449 35.5997L26.849 35.5979C26.9719 35.5419 27.0752 35.4954 27.1833 35.4647C27.3934 35.4087 27.5976 35.3727 27.8003 35.3727C28.2767 35.3727 28.74 35.5099 29.1405 35.7717C29.8107 36.2171 30.2084 36.951 30.2084 37.741Z" fill="#203053" stroke="#203053" stroke-width="0.5"/>
</svg>
