<svg width="66" height="114" viewBox="0 0 66 114" fill="none" xmlns="http://www.w3.org/2000/svg">
<path d="M51.2936 112.854C51.7395 112.287 51.9037 111.531 51.716 110.822L48.4777 97.8034C55.9398 94.5192 61.1726 87.0295 61.1726 78.3111V66.0723C63.8946 65.1036 65.8657 62.5047 65.8657 59.4095C65.8657 55.5111 62.6979 52.3214 58.8261 52.3214H56.4795V21.6063C56.4795 9.88735 46.9994 0.342041 35.3605 0.342041H30.6674C19.0284 0.342041 9.54834 9.88735 9.54834 21.6063V52.3214H7.20178C3.32996 52.3214 0.162109 55.5111 0.162109 59.4095C0.162109 62.481 2.13322 65.08 4.85523 66.0723V78.3111C4.85523 86.8405 9.82993 94.4011 17.5501 97.7798L14.3119 110.822C14.1476 111.531 14.3119 112.287 14.7342 112.854C15.1801 113.421 15.8606 113.752 16.588 113.752H49.4398C50.1673 113.752 50.8478 113.421 51.2936 112.854ZM14.2415 21.6063C14.2415 12.4863 21.6096 5.06744 30.6674 5.06744H35.3605C44.4182 5.06744 51.7864 12.4863 51.7864 21.6063V52.3214H14.2415V21.6063ZM19.5916 109.026L22.384 97.7798C22.6656 96.6929 22.1024 95.6297 21.1403 95.1335C20.9291 94.472 20.4833 93.9049 19.8028 93.6451C13.561 91.0933 9.52488 85.0921 9.52488 78.3111V66.4976H49.4398C50.7304 66.4976 51.7864 65.4344 51.7864 64.1349C51.7864 62.8354 50.7304 61.7722 49.4398 61.7722H7.20178C5.91118 61.7722 4.85523 60.709 4.85523 59.4095C4.85523 58.11 5.91118 57.0468 7.20178 57.0468H58.8261C60.1167 57.0468 61.1726 58.11 61.1726 59.4095C61.1726 60.709 60.1167 61.7722 58.8261 61.7722C57.5355 61.7722 56.4795 62.8354 56.4795 64.1349V78.3111C56.4795 87.4311 49.1113 94.85 40.0536 94.85H30.6674C29.3768 94.85 28.3208 95.9132 28.3208 97.2127C28.3208 98.5122 29.3768 99.5754 30.6674 99.5754H40.0536C41.3911 99.5754 42.7052 99.4337 43.9958 99.1974L46.4362 109.026H19.5916Z" fill="#203053"/>
</svg>
